<svg xmlns="http://www.w3.org/2000/svg" xmlns:xlink="http://www.w3.org/1999/xlink" viewBox="0 0 119.78 119.78"><defs><style>.cls-1{mask:url(#mask);filter:url(#luminosity-noclip-2);}.cls-2,.cls-9{mix-blend-mode:multiply;}.cls-2{fill:url(#linear-gradient);}.cls-3{isolation:isolate;}.cls-4{fill:url(#linear-gradient-2);}.cls-5{mask:url(#mask-2);}.cls-10,.cls-6{mix-blend-mode:overlay;}.cls-6{opacity:0.37;fill:url(#linear-gradient-3);}.cls-7,.cls-8{fill:#fff;}.cls-8{opacity:0.41;}.cls-9{opacity:0.26;fill:url(#radial-gradient);}.cls-10{opacity:0.53;}.cls-11,.cls-12,.cls-13{fill:#ebf2e4;}.cls-12,.cls-15{opacity:0.42;}.cls-13{opacity:0.62;}.cls-14,.cls-15,.cls-16,.cls-17,.cls-18,.cls-19{fill:#d5e5c3;}.cls-14{opacity:0.49;}.cls-16{opacity:0.54;}.cls-17{opacity:0.45;}.cls-18{opacity:0.66;}.cls-20{filter:url(#luminosity-noclip);}</style><filter id="luminosity-noclip" x="3.27" y="-8252.01" width="113.24" height="32766" filterUnits="userSpaceOnUse" color-interpolation-filters="sRGB"><feFlood flood-color="#fff" result="bg"/><feBlend in="SourceGraphic" in2="bg"/></filter><mask id="mask" x="3.27" y="-8252.01" width="113.24" height="32766" maskUnits="userSpaceOnUse"><g class="cls-20"/></mask><linearGradient id="linear-gradient" x1="76.95" y1="-7.96" x2="12.28" y2="126.79" gradientUnits="userSpaceOnUse"><stop offset="0" stop-color="#fff"/><stop offset="0.99" stop-color="#858585"/></linearGradient><linearGradient id="linear-gradient-2" x1="60.35" y1="-3.88" x2="59.43" y2="123.36" gradientUnits="userSpaceOnUse"><stop offset="0" stop-color="#ffbd3d"/><stop offset="0.99" stop-color="#ff6a00"/></linearGradient><filter id="luminosity-noclip-2" x="3.27" y="3.27" width="113.24" height="113.24" filterUnits="userSpaceOnUse" color-interpolation-filters="sRGB"><feFlood flood-color="#fff" result="bg"/><feBlend in="SourceGraphic" in2="bg"/></filter><mask id="mask-2" x="3.27" y="3.27" width="113.24" height="113.24" maskUnits="userSpaceOnUse"><g class="cls-1"><path class="cls-2" d="M92.18,3.27H27.6A24.33,24.33,0,0,0,3.43,24.81C7.29,17.49,16.2,6.64,34.84,7.66,62.75,9.19,58.17,12.5,44,42.8S23.73,107.5,13.7,99C4.38,91.1,4.28,81.32,3.27,76.13V92.18A24.33,24.33,0,0,0,27.6,116.51H61.19c-6-2.36-23.49-22.91-25-28.85C32.44,73.49,56.24,40.28,71.29,30.47s26.33-5.37,37.23-4.28c3.58.36,6.14,3,8,6.91V27.6A24.33,24.33,0,0,0,92.18,3.27Z"/></g></mask><linearGradient id="linear-gradient-3" x1="76.95" y1="-7.96" x2="12.28" y2="126.79" gradientUnits="userSpaceOnUse"><stop offset="0" stop-color="#f6ff00"/><stop offset="0.99" stop-color="#b38f00"/></linearGradient><radialGradient id="radial-gradient" cx="123.84" cy="106.47" r="33.41" gradientUnits="userSpaceOnUse"><stop offset="0.01" stop-color="#731a00"/><stop offset="1" stop-color="#e6e000"/></radialGradient></defs><g class="cls-3"><g id="Layer_2" data-name="Layer 2"><g id="Layer_1-2" data-name="Layer 1"><rect class="cls-4" width="119.78" height="119.78" rx="25.73"/><g class="cls-5"><path class="cls-6" d="M92.18,3.27H27.6A24.33,24.33,0,0,0,3.43,24.81C7.29,17.49,16.2,6.64,34.84,7.66,62.75,9.19,58.17,12.5,44,42.8S23.73,107.5,13.7,99C4.38,91.1,4.28,81.32,3.27,76.13V92.18A24.33,24.33,0,0,0,27.6,116.51H61.19c-6-2.36-23.49-22.91-25-28.85C32.44,73.49,56.24,40.28,71.29,30.47s26.33-5.37,37.23-4.28c3.58.36,6.14,3,8,6.91V27.6A24.33,24.33,0,0,0,92.18,3.27Z"/></g><path class="cls-7" d="M90.43,4.83c0,1.81-13.32,2.62-29.21,2.62S32.88,6.64,32.88,4.83,46.42,3.52,62.31,3.52,90.43,3,90.43,4.83Z"/><path class="cls-7" d="M97.41,5.48c0,.73-1,1.31-2.29,1.31s-2.29-.58-2.29-1.31,1-1.3,2.29-1.3S97.41,4.76,97.41,5.48Z"/><path class="cls-8" d="M56.64,115.13c0,1.09-7.17,1.54-16,1.54s-16-.45-16-1.54,7.17-2,16-2S56.64,114.05,56.64,115.13Z"/><path class="cls-9" d="M117.24,90.94s1.75,10.24-8.72,20.71c-7.09,7.09-28.77,5.23-28.77,5.23s12-9.16,14.6-23.33S117.46,62.82,117.24,90.94Z"/><g class="cls-10"><circle class="cls-11" cx="108.26" cy="15.39" r="3.46"/><path class="cls-11" d="M111.72,24.14a1.22,1.22,0,1,1,1.22-1.22A1.22,1.22,0,0,1,111.72,24.14Z"/><path class="cls-12" d="M102,95.92a2.83,2.83,0,1,1,2.82-2.82A2.83,2.83,0,0,1,102,95.92Z"/><path class="cls-12" d="M85.83,108.89a2.58,2.58,0,1,1,2.57-2.58A2.57,2.57,0,0,1,85.83,108.89Z"/><path class="cls-13" d="M110.25,28.4a2.58,2.58,0,1,1,2.57-2.58A2.58,2.58,0,0,1,110.25,28.4Z"/><path class="cls-13" d="M83.9,75.82a2.58,2.58,0,1,1,2.58-2.58A2.57,2.57,0,0,1,83.9,75.82Z"/><path class="cls-11" d="M29.25,38.38a2,2,0,1,1,2-2A2,2,0,0,1,29.25,38.38Z"/><path class="cls-11" d="M11.33,82.26a1.43,1.43,0,1,1,1.43-1.42A1.43,1.43,0,0,1,11.33,82.26Z"/><path class="cls-14" d="M61.5,64.8a2.24,2.24,0,1,1,2.23-2.23A2.23,2.23,0,0,1,61.5,64.8Z"/><path class="cls-15" d="M29.16,105.07a4.48,4.48,0,1,1,4.48-4.48A4.48,4.48,0,0,1,29.16,105.07Z"/><path class="cls-16" d="M14.75,106a2.85,2.85,0,1,1,2.84-2.84A2.85,2.85,0,0,1,14.75,106Z"/><path class="cls-17" d="M36.89,22.92a3.66,3.66,0,1,1,3.66-3.66A3.66,3.66,0,0,1,36.89,22.92Z"/><path class="cls-18" d="M24.08,16a1.83,1.83,0,1,1,1.83-1.83A1.83,1.83,0,0,1,24.08,16Z"/><path class="cls-19" d="M15.13,28.61a2.24,2.24,0,1,1,2.24-2.24A2.23,2.23,0,0,1,15.13,28.61Z"/><path class="cls-12" d="M106.64,105.07a2.24,2.24,0,1,1,2.23-2.24A2.24,2.24,0,0,1,106.64,105.07Z"/><path class="cls-12" d="M90.57,113.2a4.07,4.07,0,1,1,4.07-4.07A4.07,4.07,0,0,1,90.57,113.2Z"/><path class="cls-17" d="M44.21,9.9a1.22,1.22,0,1,1,1.22-1.22A1.22,1.22,0,0,1,44.21,9.9Z"/><path class="cls-18" d="M26.11,11.12a3,3,0,1,1,3.05-3A3,3,0,0,1,26.11,11.12Z"/><path class="cls-19" d="M32.62,27.8A1.43,1.43,0,1,1,34,26.37,1.42,1.42,0,0,1,32.62,27.8Z"/><path class="cls-15" d="M29.37,83.1a3,3,0,1,1,3.05-3A3,3,0,0,1,29.37,83.1Z"/><path class="cls-15" d="M93.88,44.42a4,4,0,1,1,4-4A4,4,0,0,1,93.88,44.42Z"/><path class="cls-11" d="M98.5,8.68a1.83,1.83,0,1,1,1.83-1.83A1.83,1.83,0,0,1,98.5,8.68Z"/></g></g></g></g></svg>